<svg t="1578481263762" class="icon" viewBox="0 0 1024 1024" version="1.1" xmlns="http://www.w3.org/2000/svg" p-id="1253" width="200" height="200"><path d="M282.24 988.16a37.76 37.76 0 0 0 17.92 3.84 42.24 42.24 0 0 0 19.84-4.48l229.12-132.48a51.84 51.84 0 0 0 26.88-43.52v-160.64a44.8 44.8 0 0 0-18.56-33.28 44.8 44.8 0 0 0-38.4 0L288 750.72a51.84 51.84 0 0 0-24.96 43.52v160.64a38.4 38.4 0 0 0 19.2 33.28zM512 696.32v108.16l-184.96 105.6v-108.16zM280.96 704a37.76 37.76 0 0 0 17.92 3.84A42.24 42.24 0 0 0 320 704l229.12-135.68A51.84 51.84 0 0 0 576 524.8V364.16a44.8 44.8 0 0 0-18.56-33.28 44.8 44.8 0 0 0-38.4 0L286.72 464a51.84 51.84 0 0 0-24.96 43.52v160.64a38.4 38.4 0 0 0 19.2 35.84zM512 408.96v108.16L326.4 622.72V512zM298.24 417.92A42.24 42.24 0 0 0 320 413.44l227.84-132.48A51.84 51.84 0 0 0 576 238.08V77.44a44.8 44.8 0 0 0-22.4-33.28 44.8 44.8 0 0 0-38.4 0L286.08 176.64a51.84 51.84 0 0 0-24.96 43.52V384a37.76 37.76 0 0 0 18.56 33.28 37.12 37.12 0 0 0 18.56 0.64z m210.56-295.68v107.52L325.76 335.36V228.48zM613.12 671.36a16 16 0 0 0 21.76 5.76l94.72-54.4a33.92 33.92 0 0 0 17.28-29.44v-512a28.8 28.8 0 0 0-12.8-29.44A28.8 28.8 0 0 0 704 51.2l-87.04 49.92A16 16 0 0 0 633.6 128l80-46.08v512l-94.72 54.4a16 16 0 0 0-5.76 23.04z" p-id="1254"></path></svg>