<svg t="1583479127101" class="icon" viewBox="0 0 1024 1024" version="1.1" xmlns="http://www.w3.org/2000/svg" p-id="2342" width="48" height="48"><path d="M832.17 905.15H191.83V391.88h640.34z m-592.34-48h544.34V439.88H239.83z" p-id="2343"></path><path d="M633.74 905.15H390.26V391.88h243.48z m-195.48-48h147.48V439.88H438.26z" p-id="2344"></path><path d="M123.26 857.15h777.49v48H123.26zM880.74 439.88H143.26a24 24 0 0 1-15.14-42.62L496.86 97.4a24 24 0 0 1 30.28 0l368.74 299.86a24 24 0 0 1-15.14 42.62z m-669.93-48h602.38L512 147z" p-id="2345"></path></svg>