<svg t="1582208812768" class="icon" viewBox="0 0 1024 1024" version="1.1" xmlns="http://www.w3.org/2000/svg" p-id="725" width="32" height="32"><path d="M773.906442 33.343399H250.089946c-119.700275 0-216.750159 97.013759-216.750159 216.750159v523.812884c0 119.66415 97.049884 216.750159 216.750159 216.750159H773.906442c119.66415 0 216.750159-97.086009 216.750159-216.750159v-523.812884c0-119.7364-97.086009-216.750159-216.750159-216.750159zM235.629098 385.634657a14.215198 14.215198 0 0 1 14.21881-14.182685h344.849503a14.211585 14.211585 0 0 0 14.251323-14.251323V272.6717c0-12.701559 15.241149-18.980089 24.272405-10.01747l108.797742 108.797742 42.262668 42.262669c8.959007 8.959007 2.611839 24.272405-10.089719 24.272405H249.844295a14.215198 14.215198 0 0 1-14.21881-14.182686V385.634657z m552.741804 252.662048c0 7.759656-6.419417 14.182685-14.251323 14.182685h-344.849502a14.207973 14.207973 0 0 0-14.218811 14.251323v84.4567c0 12.701559-15.309786 19.048726-24.30853 10.08972l-151.027898-151.060411c-8.926494-9.031257-2.644352-24.272405 10.01747-24.272405h524.452297c7.759656 0 14.182685 6.35078 14.182685 14.251323v38.101065z" p-id="726"></path></svg>