<svg t="1577423163995" class="icon" viewBox="0 0 1024 1024" version="1.1" xmlns="http://www.w3.org/2000/svg" p-id="2701" width="200" height="200"><path d="M348.393433 1024a21.333258 21.333258 0 0 1-17.407939-9.002635c-9.514633-13.418619-232.895175-330.174831-232.895175-461.950364 0-138.068844 112.276936-250.40978 250.281781-250.40978 138.090178 0 250.40978 112.340935 250.409779 250.40978 0 131.775533-223.487208 448.531745-232.980508 461.950364a21.333258 21.333258 0 0 1-17.407938 9.002635z m-0.021333-678.696263c-114.474261 0-207.615265 93.18367-207.615265 207.743264 0 90.090348 136.724849 308.585574 207.636598 412.243874 70.954415-103.679633 207.721931-322.217525 207.721931-412.243874 0-114.559594-93.18367-207.743264-207.743264-207.743264z" p-id="2702"></path><path d="M348.393433 652.075984a113.236932 113.236932 0 0 1-113.0876-113.130266 113.279599 113.279599 0 0 1 113.0876-113.215599 113.322265 113.322265 0 0 1 113.172932 113.215599 113.279599 113.279599 0 0 1-113.172932 113.130266z m0-183.658016a70.52775 70.52775 0 0 0 0 141.012834 70.570417 70.570417 0 0 0 70.506417-70.463751 70.613083 70.613083 0 0 0-70.506417-70.549083z" p-id="2703"></path><path d="M675.602941 1024a21.333258 21.333258 0 0 1-21.333258-21.333258V177.389665a21.333258 21.333258 0 0 1 12.138623-19.242598L993.468481 2.094286a21.269258 21.269258 0 0 1 20.565261 1.215996A21.269258 21.269258 0 0 1 1023.996373 21.336884v825.213078a21.333258 21.333258 0 0 1-12.138623 19.242598L684.797575 1021.909341a21.205258 21.205258 0 0 1-9.194634 2.090659z m21.333257-833.149049v778.002578L981.329858 833.088676V55.150098L696.936198 190.850951zM21.333258 1024a21.333258 21.333258 0 0 1-21.333258-21.333258V177.389665a21.333258 21.333258 0 0 1 12.138624-19.242598L339.241465 2.094286a21.269258 21.269258 0 0 1 20.565261 1.215996 21.269258 21.269258 0 0 1 9.962631 18.026602l-0.042666 302.633595a21.333258 21.333258 0 0 1-42.666516 0l0.042667-268.820381L42.666516 190.850951v777.981244l190.441992-90.922344a21.333258 21.333258 0 1 1 18.367935 38.50653L30.527892 1021.909341A21.119925 21.119925 0 0 1 21.333258 1024z" p-id="2704"></path><path d="M675.602941 1024a21.205258 21.205258 0 0 1-9.194635-2.090659l-218.26056-104.191631a21.333258 21.333258 0 0 1 18.367935-38.506531l187.732669 89.621016V190.850951L369.769357 55.150098v247.551123a21.333258 21.333258 0 0 1-42.666515 0V21.336884a21.354591 21.354591 0 0 1 30.506558-19.263931L684.797575 158.147067a21.333258 21.333258 0 0 1 12.138623 19.242598V1002.666742a21.290591 21.290591 0 0 1-21.333257 21.333258z" p-id="2705"></path></svg>