<svg t="1582223351883" class="icon" viewBox="0 0 1024 1024" version="1.1" xmlns="http://www.w3.org/2000/svg" p-id="4210" width="48" height="48"><path d="M1003.008 372.224L921.6 109.056c-12.8-40.96-49.664-68.096-92.672-68.096H169.984c-45.056 0-83.456 30.208-94.208 73.728L11.776 377.856C4.608 407.04 11.264 437.248 29.696 460.8c9.216 11.776 20.992 20.992 33.792 27.136v368.64c0 64.512 60.416 117.248 134.144 117.248h625.664c74.24 0 134.144-52.736 134.144-117.248V484.864c11.776-6.656 22.016-15.36 30.208-26.624 18.944-25.088 24.576-56.32 15.36-86.016zM78.336 393.728l64-263.168c3.072-12.8 14.848-22.016 27.648-22.016h658.432c12.8 0 23.552 8.192 27.136 19.968L936.96 391.68c2.56 8.704 1.024 17.92-4.096 25.6-5.632 7.68-13.824 11.776-23.04 11.776h-803.84c-8.704 0-16.896-4.096-22.528-10.752-5.632-6.656-7.68-15.872-5.12-24.576z m53.76 462.848V497.664h138.24v408.064H198.144c-35.84 0-66.048-22.528-66.048-49.152z m691.712 49.152H338.432V497.664h550.912v358.912c0 26.624-30.208 49.152-65.536 49.152z" p-id="4211"></path></svg>