<svg t="1575390746201" class="icon" viewBox="0 0 1024 1024" version="1.1" xmlns="http://www.w3.org/2000/svg" p-id="4675" width="32" height="32"><path d="M678.4 665.6h-307.2c-15.36 0-25.6 10.24-25.6 25.6s10.24 25.6 25.6 25.6h307.2c15.36 0 25.6-10.24 25.6-25.6 0-12.8-10.24-25.6-25.6-25.6z m0-153.6h-307.2c-15.36 0-25.6 10.24-25.6 25.6s10.24 25.6 25.6 25.6h307.2c15.36 0 25.6-10.24 25.6-25.6 0-12.8-10.24-25.6-25.6-25.6z m0-153.6h-307.2c-15.36 0-25.6 10.24-25.6 25.6s10.24 25.6 25.6 25.6h307.2c15.36 0 25.6-10.24 25.6-25.6 0-12.8-10.24-25.6-25.6-25.6z m25.6-204.8V102.4h-51.2v51.2h-102.4V102.4h-51.2v51.2h-102.4V102.4h-51.2v51.2c-56.32 0-102.4 46.08-102.4 102.4v563.2c0 56.32 46.08 102.4 102.4 102.4h358.4c56.32 0 102.4-46.08 102.4-102.4V256c0-56.32-46.08-102.4-102.4-102.4z m51.2 665.6c0 28.16-23.04 51.2-51.2 51.2h-358.4c-28.16 0-51.2-23.04-51.2-51.2V256c0-28.16 23.04-51.2 51.2-51.2h358.4c28.16 0 51.2 23.04 51.2 51.2v563.2z" p-id="4676"></path></svg>